<svg xmlns="http://www.w3.org/2000/svg" viewBox="0 0 311.83 360.08"><defs><style>.cls-1{fill:#6c3082;}.cls-2{fill:#df73ff;}.cls-3{fill:#b768a2;}.cls-4{fill:#5b3256;}.cls-5{fill:#f94d00;}.cls-6{fill:#682860;}</style></defs><g id="Layer_2" data-name="Layer 2"><g id="Layer_1-2" data-name="Layer 1"><polygon points="311.83 95 311.83 270.05 158.55 358.56 158.55 355.52 309.21 268.53 309.21 96.02 310.98 95 311.83 95"/><polygon points="311.83 90.01 311.83 95 310.98 95 309.21 91.92 309.21 91.53 308.87 91.32 308.36 90.45 307.85 90.75 155.91 3.03 3.98 90.75 3.47 90.45 2.96 91.34 2.62 91.53 2.62 91.92 0.83 95 0 95 0 90.01 155.91 0 311.83 90.01"/><polygon points="309.21 91.92 310.98 95 309.21 96.02 309.21 91.92"/><polygon points="309.21 96.02 309.21 268.53 158.55 355.52 158.55 352.49 306.59 267.03 306.59 97.52 309.21 96.02"/><polygon points="309.21 91.92 309.21 96.02 306.59 97.52 306.59 93.04 305.23 92.25 307.85 90.75 308.87 91.32 309.21 91.92"/><polygon points="309.21 91.53 309.21 91.92 308.87 91.32 309.21 91.53"/><polygon points="308.87 91.32 307.85 90.75 308.36 90.45 308.87 91.32"/><polygon points="155.91 3.03 307.85 90.75 305.23 92.25 155.91 6.05 6.6 92.25 3.98 90.75 155.91 3.03"/><polygon class="cls-1" points="306.59 97.52 306.59 267.03 158.55 352.49 158.55 220.89 171.62 228.51 171.62 269.93 171.62 308.4 171.62 313.33 279.19 251.22 279.19 127.2 274.85 129.95 273.92 130.52 208.05 171.37 193.39 162.89 306.59 97.52"/><polygon points="306.59 93.04 306.59 97.52 193.39 162.89 190.35 161.15 190.35 158.57 305.23 92.25 306.59 93.04"/><polygon class="cls-1" points="305.23 92.25 190.35 158.57 190.35 144.88 258.38 101.65 258.38 101.64 262.35 99.13 155.91 37.68 49.59 99.08 53.58 101.58 64.52 108.5 121.51 144.5 121.64 158.68 6.6 92.25 155.91 6.05 305.23 92.25"/><polygon points="279.19 127.2 279.19 251.22 171.62 313.33 171.62 308.4 174.46 308.4 177.31 308.4 177.31 306.75 273.23 251.35 273.69 251.61 274.13 250.84 276.34 249.56 276.34 247 276.53 246.68 276.34 246.57 276.34 135.72 277.84 134.79 276.34 132.38 276.34 132.36 274.85 129.95 279.19 127.2"/><polygon points="276.34 132.38 277.84 134.79 276.34 135.72 276.34 132.38"/><polygon points="276.53 246.68 276.34 247 276.34 246.57 276.53 246.68"/><polygon points="276.34 247 276.34 249.56 274.13 250.84 276.34 247"/><polygon points="276.34 246.57 276.34 247 274.13 250.84 273.23 251.35 270.41 249.72 273.5 247.93 273.5 244.94 276.34 246.57"/><polygon points="276.34 135.72 276.34 246.57 273.5 244.94 273.5 137.52 273.48 137.5 276.34 135.72"/><polygon points="276.34 132.38 276.34 135.72 273.48 137.5 246.87 154 246.89 150.96 276.34 132.36 276.34 132.38"/><polygon points="276.34 132.36 246.89 150.96 246.87 154 243.99 155.78 244.03 152.41 276.34 132.36"/><polygon points="276.34 132.36 244.03 152.41 244.05 149.37 273.92 130.52 274.85 129.95 276.34 132.36"/><polygon points="273.23 251.35 274.13 250.84 273.69 251.61 273.23 251.35"/><polygon points="208.05 171.37 273.92 130.52 244.05 149.37 244.03 152.41 210.86 172.98 208.05 171.37"/><polygon points="273.5 244.94 273.5 247.93 270.41 249.72 158.55 185.14 158.55 183.02 162.4 180.78 273.5 244.94"/><polygon class="cls-2" points="273.5 137.52 273.5 244.94 162.4 180.78 187.7 166.18 249.28 201.74 249.72 152.54 273.5 137.52"/><polygon points="273.5 137.52 249.72 152.54 249.28 201.74 187.7 166.18 190.53 164.54 208.11 174.69 209.6 177.1 210.9 176.3 246.47 196.84 246.87 154 273.48 137.5 273.5 137.52"/><polygon points="273.23 251.35 177.31 306.75 177.31 303.46 270.41 249.72 273.23 251.35"/><polygon class="cls-3" points="270.41 249.72 177.31 303.46 177.31 273.21 218.61 249.38 158.55 214.29 158.55 185.14 270.41 249.72"/><polygon points="262.35 99.13 258.38 101.64 256.85 99.25 255.33 96.86 254.08 97.65 158.76 42.62 158.76 42.12 157.93 42.12 155.91 40.97 153.9 42.12 153.07 42.12 153.07 42.62 57.88 97.58 56.61 96.78 55.09 99.19 53.58 101.58 49.59 99.08 155.91 37.68 262.35 99.13"/><polygon points="258.38 101.64 258.38 101.65 190.35 144.88 190.35 141.52 225.42 119.22 228.12 120.75 258.38 101.64"/><polygon points="258.38 101.64 228.12 120.75 225.42 119.22 256.85 99.25 258.38 101.64"/><polygon points="255.33 96.86 256.85 99.25 254.08 97.65 255.33 96.86"/><polygon points="256.85 99.25 225.42 119.22 222.63 117.64 225.35 115.9 228.04 117.43 256.85 99.25"/><polygon points="256.85 99.25 228.04 117.43 225.35 115.9 251.37 99.38 254.08 97.65 256.85 99.25"/><polygon points="158.76 42.62 254.08 97.65 251.37 99.38 251.35 99.36 158.76 45.91 158.76 42.62"/><polygon points="251.37 99.38 225.35 115.9 187.51 94.43 187.51 139.94 185.99 140.91 187.51 143.3 187.51 143.32 187.51 160.22 184.67 161.87 184.67 89.54 227.96 114.11 251.35 99.36 251.37 99.38"/><polygon class="cls-2" points="251.35 99.36 227.96 114.11 184.67 89.54 184.67 161.87 158.76 176.81 158.76 45.91 251.35 99.36"/><polygon points="246.87 154 246.47 196.84 210.9 176.3 213.65 174.59 243.67 191.93 243.99 155.78 246.87 154"/><polygon points="244.03 152.41 243.99 155.78 213.65 174.59 210.86 172.98 244.03 152.41"/><polygon class="cls-4" points="243.99 155.78 243.67 191.93 213.65 174.59 243.99 155.78"/><polygon points="225.42 119.22 190.35 141.52 190.35 138.14 222.63 117.64 225.42 119.22"/><polygon points="225.35 115.9 222.63 117.64 190.35 99.32 190.35 138.14 187.51 139.94 187.51 94.43 225.35 115.9"/><polygon class="cls-4" points="222.63 117.64 190.35 138.14 190.35 99.32 222.63 117.64"/><polygon points="218.61 249.38 177.31 273.21 177.31 269.93 212.94 249.36 177.31 228.55 177.31 226.88 174.46 226.88 158.55 217.59 158.55 214.29 218.61 249.38"/><polygon points="213.65 174.59 210.9 176.3 208.11 174.69 210.86 172.98 213.65 174.59"/><polygon points="212.94 249.36 177.31 269.93 177.31 266.65 207.29 249.34 177.31 231.83 177.31 228.55 212.94 249.36"/><polygon points="210.9 176.3 209.6 177.1 208.11 174.69 210.9 176.3"/><polygon points="210.86 172.98 208.11 174.69 206.61 172.26 208.05 171.37 210.86 172.98"/><polygon points="206.61 172.26 208.11 174.69 190.53 164.54 193.39 162.89 208.05 171.37 206.61 172.26"/><polygon class="cls-4" points="207.29 249.34 177.31 266.65 177.31 231.83 207.29 249.34"/><polygon points="193.39 162.89 190.53 164.54 187.51 162.8 187.51 160.22 190.35 158.57 190.35 161.15 193.39 162.89"/><polygon points="190.53 164.54 187.7 166.18 184.67 164.43 184.67 161.87 187.51 160.22 187.51 162.8 190.53 164.54"/><polygon points="190.35 144.88 190.35 158.57 187.51 160.22 187.51 143.32 187.53 143.32 189.05 145.71 190.35 144.88"/><polygon points="190.35 141.52 190.35 144.88 189.05 145.71 187.53 143.32 190.35 141.52"/><polygon points="190.35 138.14 190.35 141.52 187.53 143.32 187.51 143.32 187.51 143.3 187.51 139.94 190.35 138.14"/><polygon class="cls-2" points="187.7 166.18 162.4 180.78 158.76 178.69 158.76 176.81 184.67 161.87 184.67 164.43 187.7 166.18"/><polygon points="187.51 139.94 187.51 143.3 185.99 140.91 187.51 139.94"/><polygon points="177.31 306.75 177.31 308.4 174.46 308.4 177.31 306.75"/><polygon points="177.31 303.46 177.31 306.75 174.46 308.4 174.46 271.58 177.31 269.93 177.31 273.21 177.31 303.46"/><polygon points="177.31 266.65 177.31 269.93 174.46 271.58 174.46 268.28 177.31 266.65"/><polygon points="177.31 231.83 177.31 266.65 174.46 268.28 174.46 230.18 177.31 231.83"/><polygon points="177.31 228.55 177.31 231.83 174.46 230.18 174.46 226.88 177.31 228.55"/><polygon points="177.31 226.88 177.31 228.55 174.46 226.88 177.31 226.88"/><polygon points="174.46 271.58 174.46 308.4 171.62 308.4 171.62 269.93 174.46 268.28 174.46 271.58"/><polygon points="174.46 230.18 174.46 268.28 171.62 269.93 171.62 228.51 174.46 230.18"/><polygon points="174.46 226.88 174.46 230.18 171.62 228.51 171.62 226.88 174.46 226.88"/><polygon points="174.46 226.88 171.62 226.88 171.62 228.51 158.55 220.89 158.55 217.59 174.46 226.88"/><polygon points="162.4 180.78 158.55 183.02 158.55 180.47 153.28 180.47 153.28 183.02 149.43 180.8 153.07 178.69 153.07 180.32 158.76 180.32 158.76 178.69 162.4 180.78"/><polygon points="158.76 178.69 158.76 180.32 153.07 180.32 153.07 178.69 154.68 177.74 155.91 178.46 157.15 177.74 158.76 178.69"/><polygon points="158.76 176.81 158.76 178.69 157.15 177.74 158.76 176.81"/><polygon points="158.76 45.91 158.76 176.81 157.15 177.74 155.91 177.04 154.68 177.74 153.07 176.81 153.07 45.91 155.91 44.27 158.76 45.91"/><polygon points="158.76 42.62 158.76 45.91 155.91 44.27 153.07 45.91 153.07 42.62 153.9 42.12 157.93 42.12 158.76 42.62"/><polygon points="158.76 42.12 158.76 42.62 157.93 42.12 158.76 42.12"/><polygon points="158.55 358.56 158.55 358.77 158.17 358.77 158.55 358.56"/><polygon points="158.55 355.52 158.55 358.56 158.17 358.77 153.66 358.77 153.28 358.56 153.28 355.52 155.91 357.04 158.55 355.52"/><polygon points="158.55 352.49 158.55 355.52 155.91 357.04 153.28 355.52 153.28 352.49 155.91 354.01 158.55 352.49"/><polygon points="158.55 220.89 158.55 352.49 155.91 354.01 153.28 352.49 153.28 221.29 156.24 219.54 158.55 220.89"/><polygon points="158.55 217.59 158.55 220.89 156.24 219.54 153.28 221.29 153.28 217.99 156.24 216.24 158.55 217.59"/><polygon points="158.55 214.29 158.55 217.59 156.24 216.24 153.28 217.99 153.28 214.67 156.24 212.94 158.55 214.29"/><polygon class="cls-3" points="158.55 185.14 158.55 214.29 156.24 212.94 153.28 214.67 153.28 185.14 155.12 184.08 155.91 184.53 156.71 184.08 158.55 185.14"/><polygon points="158.55 183.02 158.55 185.14 156.71 184.08 158.55 183.02"/><polygon points="158.55 180.47 158.55 183.02 156.71 184.08 155.91 183.62 155.12 184.08 153.28 183.02 153.28 180.47 158.55 180.47"/><polygon points="158.17 358.77 155.91 360.08 153.66 358.77 158.17 358.77"/><polygon points="157.93 42.12 153.9 42.12 155.91 40.97 157.93 42.12"/><polygon points="157.15 177.74 155.91 178.46 154.68 177.74 155.91 177.04 157.15 177.74"/><polygon class="cls-5" points="156.71 184.08 155.91 184.53 155.12 184.08 155.91 183.62 156.71 184.08"/><polygon points="153.28 183.02 155.12 184.08 153.28 185.14 153.28 183.02"/><polygon points="154.68 177.74 153.07 178.69 153.07 176.81 154.68 177.74"/><polygon points="153.9 42.12 153.07 42.62 153.07 42.12 153.9 42.12"/><polygon points="153.66 358.77 153.28 358.77 153.28 358.56 153.66 358.77"/><polygon points="153.28 355.52 153.28 358.56 0 270.05 0 95 0.83 95 2.62 96.02 2.62 268.53 153.28 355.52"/><polygon points="153.28 352.49 153.28 355.52 2.62 268.53 2.62 96.02 5.23 97.54 5.23 267.03 153.28 352.49"/><polygon class="cls-6" points="153.28 221.29 153.28 352.49 5.23 267.03 5.23 97.54 118.69 163.04 104.03 171.37 36.98 129.8 32.64 127.07 32.64 251.22 138.88 312.55 138.88 307.64 138.88 268.61 138.88 229.73 153.28 221.29"/><polygon points="153.28 217.99 153.28 221.29 138.88 229.73 138.88 228.08 136.06 228.08 153.28 217.99"/><polygon points="153.28 214.67 153.28 217.99 136.06 228.08 136.04 228.08 133.19 228.08 133.19 229.76 100.12 249.17 133.19 268.57 133.19 271.87 94.48 249.15 153.28 214.67"/><polygon class="cls-3" points="153.28 185.14 153.28 214.67 94.48 249.15 133.19 271.87 133.19 302.71 41.42 249.72 153.28 185.14"/><polygon points="153.28 183.02 153.28 185.14 41.42 249.72 38.33 247.93 38.33 244.94 149.43 180.8 153.28 183.02"/><polygon class="cls-2" points="153.07 176.81 153.07 178.69 149.43 180.8 124.41 166.34 127.39 164.66 127.37 161.98 153.07 176.81"/><polygon class="cls-2" points="153.07 45.91 153.07 176.81 127.37 161.98 126.71 89.54 84.11 114.13 60.59 99.28 153.07 45.91"/><polygon points="153.07 42.62 153.07 45.91 60.59 99.28 57.88 97.58 153.07 42.62"/><polygon class="cls-2" points="124.41 166.34 149.43 180.8 38.33 244.94 38.33 137.38 62.11 152.39 62.11 201.72 124.41 166.34"/><polygon points="138.88 307.64 138.88 312.55 32.64 251.22 32.64 127.07 36.98 129.8 35.48 132.23 33.99 134.63 35.48 135.56 35.48 246.57 35.3 246.68 35.48 247 35.48 249.56 37.7 250.84 38.14 251.61 38.59 251.35 133.19 305.99 133.19 307.64 136.04 307.64 138.88 307.64"/><polygon points="138.88 268.61 138.88 307.64 136.04 307.64 136.04 270.24 136.04 266.94 138.88 268.61"/><polygon points="138.88 229.73 138.88 268.61 136.04 266.94 136.04 231.4 138.88 229.73"/><polygon points="138.88 228.08 138.88 229.73 136.04 231.4 136.04 228.1 136.06 228.08 138.88 228.08"/><polygon points="136.06 228.08 136.04 228.1 136.04 228.08 136.06 228.08"/><polygon points="136.04 270.24 136.04 307.64 133.19 305.99 133.19 302.71 133.19 271.87 133.19 268.57 136.04 270.24"/><polygon points="136.04 266.94 136.04 270.24 133.19 268.57 133.19 265.27 136.04 266.94"/><polygon points="136.04 231.4 136.04 266.94 133.19 265.27 133.19 233.06 136.04 231.4"/><polygon points="136.04 228.1 136.04 231.4 133.19 233.06 133.19 229.76 136.04 228.1"/><polygon points="136.04 228.08 136.04 228.1 133.19 229.76 133.19 228.08 136.04 228.08"/><polygon points="136.04 307.64 133.19 307.64 133.19 305.99 136.04 307.64"/><polygon points="133.19 302.71 133.19 305.99 38.59 251.35 41.42 249.72 133.19 302.71"/><polygon points="133.19 265.27 133.19 268.57 100.12 249.17 133.19 229.76 133.19 233.06 105.73 249.17 133.19 265.27"/><polygon class="cls-4" points="133.19 233.06 133.19 265.27 105.73 249.17 133.19 233.06"/><polygon points="127.37 161.98 127.39 164.66 124.41 166.34 121.55 164.69 124.53 163.01 124.51 160.33 127.37 161.98"/><polygon points="126.71 89.54 127.37 161.98 124.51 160.33 124.36 142.9 125.85 140.51 124.32 139.55 123.92 94.43 86.8 115.86 60.59 99.28 84.11 114.13 126.71 89.54"/><polygon points="125.85 140.51 124.36 142.9 124.32 139.55 125.85 140.51"/><polygon points="124.51 160.33 124.53 163.01 121.55 164.69 118.69 163.04 121.66 161.36 121.64 158.68 124.51 160.33"/><polygon points="124.36 142.9 124.51 160.33 121.64 158.68 121.51 144.5 122.82 145.33 124.34 142.92 124.36 142.9"/><polygon points="124.41 166.34 62.11 201.72 62.11 152.39 38.33 137.38 38.35 137.35 64.96 153.85 64.96 196.84 101.16 176.28 102.47 177.1 103.97 174.69 121.55 164.69 124.41 166.34"/><polygon points="124.32 139.55 124.36 142.9 124.34 142.92 121.49 141.12 121.45 137.73 124.32 139.55"/><polygon points="124.34 142.92 122.82 145.33 121.51 144.5 121.49 141.12 124.34 142.92"/><polygon points="123.92 94.43 124.32 139.55 121.45 137.73 121.11 99.34 89.54 117.57 86.8 115.86 123.92 94.43"/><polygon points="121.64 158.68 121.66 161.36 118.69 163.04 5.23 97.54 5.23 93.04 6.6 92.25 121.64 158.68"/><polygon points="121.55 164.69 103.97 174.69 105.47 172.26 104.03 171.37 118.69 163.04 121.55 164.69"/><polygon points="121.49 141.12 121.51 144.5 64.52 108.5 83.98 120.77 86.75 119.18 121.49 141.12"/><polygon points="121.45 137.73 121.49 141.12 86.75 119.18 89.54 117.57 121.45 137.73"/><polygon class="cls-4" points="121.11 99.34 121.45 137.73 89.54 117.57 121.11 99.34"/><polygon points="105.47 172.26 103.97 174.69 101.2 172.98 104.03 171.37 105.47 172.26"/><polygon points="104.03 171.37 101.2 172.98 67.8 152.27 67.8 149.26 36.98 129.8 104.03 171.37"/><polygon points="103.97 174.69 102.47 177.1 101.16 176.28 103.97 174.69"/><polygon points="103.97 174.69 101.16 176.28 98.39 174.58 101.2 172.98 103.97 174.69"/><polygon points="67.8 152.27 101.2 172.98 98.39 174.58 67.8 155.61 67.8 152.27"/><polygon points="101.16 176.28 64.96 196.84 64.96 153.85 67.8 155.61 67.8 191.95 98.39 174.58 101.16 176.28"/><polygon class="cls-4" points="67.8 155.61 98.39 174.58 67.8 191.95 67.8 155.61"/><polygon points="89.54 117.57 86.75 119.18 55.09 99.19 84.04 117.45 86.8 115.86 89.54 117.57"/><polygon points="60.59 99.28 86.8 115.86 84.04 117.45 55.09 99.19 57.88 97.58 60.59 99.28"/><polygon points="86.75 119.18 83.98 120.77 64.52 108.5 53.58 101.58 55.09 99.19 86.75 119.18"/><polygon points="67.8 152.27 67.8 155.61 64.96 153.85 64.96 150.83 35.48 132.23 67.8 152.27"/><polygon points="67.8 149.26 67.8 152.27 35.48 132.23 36.98 129.8 67.8 149.26"/><polygon points="64.96 150.83 64.96 153.85 38.35 137.35 35.48 135.56 35.48 132.23 64.96 150.83"/><polygon points="57.88 97.58 55.09 99.19 56.61 96.78 57.88 97.58"/><polygon points="41.42 249.72 38.59 251.35 37.7 250.84 35.48 247 35.48 246.57 38.33 244.94 38.33 247.93 41.42 249.72"/><polygon points="38.59 251.35 38.14 251.61 37.7 250.84 38.59 251.35"/><polygon points="35.48 135.56 38.35 137.35 38.33 137.38 38.33 244.94 35.48 246.57 35.48 135.56"/><polygon points="37.7 250.84 35.48 249.56 35.48 247 37.7 250.84"/><polygon points="35.48 246.57 35.48 247 35.3 246.68 35.48 246.57"/><polygon points="35.48 132.23 35.48 135.56 33.99 134.63 35.48 132.23"/><polygon points="6.6 92.25 5.23 93.04 5.23 97.54 2.62 96.02 2.62 91.92 2.96 91.34 3.98 90.75 6.6 92.25"/><polygon points="3.47 90.45 3.98 90.75 2.96 91.34 3.47 90.45"/><polygon points="2.96 91.34 2.62 91.92 2.62 91.53 2.96 91.34"/><polygon points="2.62 91.92 2.62 96.02 0.83 95 2.62 91.92"/></g></g></svg>